<svg xmlns="http://www.w3.org/2000/svg" width="42" height="43" viewBox="0 0 42 43" fill="none">
    <path
        d="M21 42.6367C16.8466 42.6367 12.7865 41.4051 9.33303 39.0976C5.8796 36.7901 3.18798 33.5103 1.59854 29.6731C0.00909887 25.8358 -0.406771 21.6134 0.403519 17.5398C1.21381 13.4662 3.21386 9.72439 6.15077 6.78749C9.08767 3.85058 12.8295 1.85053 16.9031 1.04024C20.9767 0.229948 25.1991 0.645818 29.0364 2.23526C32.8736 3.8247 36.1534 6.51632 38.4609 9.96975C40.7684 13.4232 42 17.4833 42 21.6367C42 27.2063 39.7875 32.5477 35.8492 36.486C31.911 40.4242 26.5696 42.6367 21 42.6367ZM21 4.13673C17.5388 4.13673 14.1554 5.16309 11.2775 7.08601C8.39967 9.00893 6.15665 11.7421 4.83212 14.9398C3.50758 18.1375 3.16103 21.6561 3.83627 25.0508C4.51151 28.4455 6.17822 31.5637 8.62564 34.0111C11.0731 36.4585 14.1913 38.1252 17.5859 38.8005C20.9806 39.4757 24.4993 39.1292 27.697 37.8046C30.8947 36.4801 33.6278 34.2371 35.5507 31.3592C37.4737 28.4813 38.5 25.0979 38.5 21.6367C38.5 16.9954 36.6563 12.5442 33.3744 9.26236C30.0925 5.98047 25.6413 4.13673 21 4.13673Z"
        fill="#BCDBFE" />
    <path
        d="M20.9998 32.7207C20.7698 32.7218 20.542 32.6769 20.3296 32.5888C20.1173 32.5006 19.9247 32.3709 19.7631 32.2073L10.4298 22.874C10.102 22.5459 9.91797 22.1011 9.91797 21.6373C9.91797 21.1736 10.102 20.7288 10.4298 20.4007L19.7631 11.0673C20.0948 10.7582 20.5336 10.5899 20.987 10.5979C21.4403 10.6059 21.8729 10.7896 22.1935 11.1102C22.5142 11.4308 22.6978 11.8634 22.7058 12.3168C22.7138 12.7702 22.5455 13.2089 22.2364 13.5407L14.1398 21.6373L22.2364 29.734C22.5641 30.0621 22.7482 30.5069 22.7482 30.9707C22.7482 31.4344 22.5641 31.8792 22.2364 32.2073C22.0749 32.3709 21.8822 32.5006 21.6699 32.5888C21.4575 32.6769 21.2297 32.7218 20.9998 32.7207Z"
        fill="#BCDBFE" />
    <path
        d="M30.3327 23.3867H11.666C11.2019 23.3867 10.7568 23.2023 10.4286 22.8742C10.1004 22.546 9.91602 22.1008 9.91602 21.6367C9.91602 21.1726 10.1004 20.7275 10.4286 20.3993C10.7568 20.0711 11.2019 19.8867 11.666 19.8867H30.3327C30.7968 19.8867 31.2419 20.0711 31.5701 20.3993C31.8983 20.7275 32.0827 21.1726 32.0827 21.6367C32.0827 22.1008 31.8983 22.546 31.5701 22.8742C31.2419 23.2023 30.7968 23.3867 30.3327 23.3867Z"
        fill="#BCDBFE" />
</svg>