<?xml version="1.0" encoding="UTF-8"?><svg id="a" xmlns="http://www.w3.org/2000/svg" xmlns:xlink="http://www.w3.org/1999/xlink" viewBox="0 0 3359.05 1077.17"><defs><style>.f{fill:url(#e);}.g{fill:url(#d);}.h{fill:url(#c);}.i{fill:url(#b);}.j{fill:#fff;}.k{fill:#0d57a7;}</style><linearGradient id="b" x1="571.49" y1="893.91" x2="408.86" y2="180.68" gradientTransform="matrix(1, 0, 0, 1, 0, 0)" gradientUnits="userSpaceOnUse"><stop offset="0" stop-color="#e3b664"/><stop offset=".31" stop-color="#e6b967"/><stop offset="1" stop-color="#c99a4d"/></linearGradient><linearGradient id="c" x1="374.46" y1="502.46" x2="188.11" y2="192.43" gradientTransform="matrix(1, 0, 0, 1, 0, 0)" gradientUnits="userSpaceOnUse"><stop offset="0" stop-color="#d0a153"/><stop offset="1" stop-color="#b9893f"/></linearGradient><linearGradient id="d" x1="719.08" y1="911.78" x2="545.15" y2="89.57" gradientTransform="matrix(1, 0, 0, 1, 0, 0)" gradientUnits="userSpaceOnUse"><stop offset="0" stop-color="#e3b664"/><stop offset=".41" stop-color="#ebc076"/><stop offset="1" stop-color="#c99a4d"/></linearGradient><linearGradient id="e" x1="767.84" y1="587.26" x2="952.5" y2="909.15" gradientTransform="matrix(1, 0, 0, 1, 0, 0)" gradientUnits="userSpaceOnUse"><stop offset="0" stop-color="#e3b664"/><stop offset=".31" stop-color="#e6b967"/><stop offset="1" stop-color="#b9893f"/></linearGradient></defs><path class="i" d="M457.34,185.37c-3.87,0-7.07,3.16-7.07,7.04V822.75c0,38.91,31.52,70.47,70.47,70.47h3.17c3.94,0,7.07-3.2,7.07-7.04V255.8c0-38.91-31.52-70.43-70.43-70.43h-3.2Z"/><path class="h" d="M141.91,192.41v51.08c0,22.3,10.59,43.27,28.43,56.54l205.95,153c4.68,3.45,11.26,.18,11.26-5.63v-51.12c0-22.27-10.55-43.24-28.46-56.53L153.2,186.74c-1.3-.95-2.74-1.37-4.18-1.37-3.62,0-7.11,2.88-7.11,7.04"/><path class="g" d="M606.97,185.37c-3.87,0-7,3.16-7,7.04V822.75c0,38.91,31.49,70.47,70.43,70.47h3.2c3.87,0,7-3.2,7-7.04V255.8c0-38.91-31.52-70.43-70.43-70.43h-3.2Z"/><path class="f" d="M743.36,631.19v51.08c0,22.31,10.52,43.27,28.46,56.5l205.88,153c4.64,3.48,11.29,.14,11.29-5.6v-51.12c0-22.27-10.59-43.27-28.46-56.57l-205.92-153c-1.3-.95-2.74-1.37-4.19-1.37-3.62,0-7.07,2.89-7.07,7.07"/><path class="k" d="M852.36,380.42l108.22-80.35c17.84-13.3,28.43-34.27,28.43-56.57v-51.08c0-5.77-6.65-9.11-11.29-5.67l-170.73,126.9c-39.19,29.1-63.71,74.72-63.57,123.52,.11,48.06,22.31,92.07,60.83,120.74l173.48,128.87c4.64,3.45,11.29,.11,11.29-5.66v-51.08c0-22.31-10.59-43.28-28.43-56.57l-106.18-78.84c-19.45-14.46-30.82-36.69-30.29-59.38,.45-21.81,10.76-41.8,28.25-54.81Z"/><path class="k" d="M281.54,695.14l-108.18,80.35c-17.91,13.33-28.46,34.3-28.46,56.57v51.12c0,5.77,6.65,9.08,11.29,5.59l170.74-126.83c39.19-29.1,63.71-74.76,63.57-123.52-.1-48.06-22.31-92.07-60.83-120.74l-173.48-128.87c-4.64-3.45-11.29-.14-11.29,5.67v51.08c0,22.27,10.55,43.24,28.46,56.57l106.14,78.84c19.45,14.46,30.82,36.69,30.32,59.38-.49,21.78-10.8,41.8-28.29,54.78"/><path class="j" d="M1125.27,330.96c-1.76,0-3.59,.7-5.01,1.74-3.59,2.23-7.76,4.49-12.19,6.94l-.74,.33v-71.44h14.66c4.68,0,7.86-4.12,7.86-10.2s-3.18-10.24-7.86-10.24h-14.66v-52.08c0-5.34-3.52-8.53-9.55-8.53s-9.95,3.19-9.95,8.53v52.08h-18.32c-4.71,0-7.86,4.12-7.86,10.24s3.15,10.2,7.86,10.2h18.32v80.64c-8.06,3.6-15.68,6.38-20.83,8.2-3.96,1.33-6.2,4.49-6.2,8.72,0,1.37,.21,2.63,.48,4.08,1.35,5.08,4.51,8.01,8.6,8.01,1.32,0,2.64-.3,3.86-.78,17.94-6.64,40.6-17.51,55.02-26.49,3.25-2.08,5.18-5.34,5.18-9.02,0-1.89-.37-3.56-1.01-5.08-1.56-3.67-4.37-5.86-7.66-5.86"/><path class="j" d="M1239.43,221.53h-35.46v-26.97c0-5.45-3.62-8.75-9.75-8.75s-9.75,3.38-9.75,8.75v26.97h-31.29c-13.68,0-19.74,6.31-19.74,20.44v85.06c0,14.1,6.06,20.4,19.74,20.4h31.29v54.2c0,5.41,3.73,8.79,9.75,8.79s9.75-3.3,9.75-8.79v-54.2h35.46c13.51,0,19.47-6.31,19.47-20.4v-85.06c0-14.13-5.96-20.44-19.47-20.44m-35.46,52.38v-32.35h31.79c3.39,0,4.06,.59,4.06,3.93v28.42h-35.86Zm35.86,19.51v29.79c0,3.34-.67,4.01-4.06,4.01h-31.79v-33.79h35.86Zm-55.36-51.86v32.35h-31.93v-28.42c0-3.23,.78-3.93,4.06-3.93h27.87Zm0,51.86v33.79h-27.87c-3.32,0-4.06-.74-4.06-4.01v-29.79h31.93Z"/><path class="j" d="M1476.78,215.63h-68.3c2.27-6.34,4.03-12.68,5.42-17.66,.21-1.48,.41-3,.41-4.08,0-4.64-2.4-7.57-7.31-8.79l-.58-.15c-1.15-.15-2.13-.34-2.91-.34-4.61,0-7.35,2.3-8.63,7.31-2.04,7.9-4.37,15.69-7.28,23.7h-40.77c-4.74,0-7.82,3.93-7.82,10.02s3.08,10.2,7.82,10.2h32.14c-11.44,23.07-27.26,42.99-45.92,57.87-2.74,2.15-4.37,5.3-4.37,8.38,0,2.67,.98,5.19,2.47,6.83,3.49,5.34,9.08,6.42,14.86,1.34,6.5-5.64,12.87-12.24,18.36-18.88-.48,4.12-.71,8.38-.71,11.94v97.86c0,5.12,3.96,8.53,9.82,8.53s9.95-3.26,9.95-8.53v-45.26h66.74v24.37c0,3.82,0,4.97-7.51,4.97-4.23,0-9.82-.52-13.89-1.19h-1.29c-4.4,0-7.69,3.41-8.13,8.16-.34,1.04-.34,1.93-.34,2.52,0,5.12,3.05,8.79,7.96,9.72,3.83,.71,10.37,1.19,16.77,1.19,18.93,0,25.94-6.16,25.94-22.78v-105.91c0-13.91-6.2-20.4-19.47-20.4h-55.13c-2.2,0-4.54,.34-6.81,.89,4.54-7.57,8.43-14.39,11.75-21.62h76.77c4.98,0,8.06-3.9,8.06-10.2s-3.15-10.02-8.06-10.02m-26.62,81.28h-66.74v-16.58c0-3.08,.95-3.97,4.3-3.97h57.94c3.42,0,4.5,.96,4.5,4.19v16.36Zm0,39.8h-66.74v-20.55h66.74v20.55Z"/><path class="j" d="M1345.6,195.3c0-4.38-2.74-7.72-7.79-9.23l-.78-.15c-5.79-1.15-10.57,1.52-11.81,7.2-8.47,32.9-24.59,65.03-44.12,88.33-2.07,2.48-3.25,5.82-3.25,8.83s.91,5.64,2.91,7.75c4.61,5.12,10.67,4.15,14.87-.97,3.9-4.75,8.13-11.28,12.23-18.84-.81,8.53-1.25,15.61-1.25,21.81v100.86c0,5.41,3.89,8.86,9.96,8.86s9.99-3.37,9.99-8.86V246.94c7.96-16.47,14.49-33.42,18.56-47.93,.24-1.26,.51-2.59,.51-3.71"/><path class="j" d="M1698.08,317.23c-.54,0-1.49,0-1.93,.33l-15.54,3.9v-125.42c0-5.56-3.69-8.83-9.99-8.83s-9.95,3.49-9.95,8.83v130.57l-74.5,19.07c-3.72,.85-5.92,4.27-5.92,9.23,0,.89,0,2,.2,2.67,.78,5.27,3.96,8.53,8.26,8.53,.68,0,1.35,0,2.1-.3l69.86-17.7v53.94c0,5.34,3.89,8.83,9.95,8.83s9.99-3.26,9.99-8.83v-59.06l19.61-4.86c3.59-.89,5.89-4.49,5.89-9.24,0-1.04,0-2.12-.2-3.26-1.12-5.31-4.03-8.42-7.82-8.42"/><path class="j" d="M1628.9,313.34c1.83,2.26,4.4,3.52,7.18,3.52,2.61,0,5.11-1.04,7.08-2.93,1.9-2.01,2.91-4.86,2.91-7.75,0-2.49-.88-5.19-2.57-7.72-9.48-11.76-23.84-24.71-33.86-32.24-1.73-1.37-3.56-2.04-5.76-2.04-2.98,0-5.76,1.41-7.42,3.78-1.56,2-2.57,4.9-2.57,7.38,0,2.86,1.18,5.53,3.39,7.27,10.19,7.64,22.89,19.99,31.63,30.71"/><path class="j" d="M1633.51,262.82c1.83,2.26,4.4,3.52,7.18,3.52,2.61,0,5.11-1.04,7.08-2.93,1.9-2.01,2.91-4.86,2.91-7.75,0-2.48-.88-5.19-2.57-7.72-9.48-11.76-23.84-24.71-33.86-32.24-1.73-1.37-3.56-2.04-5.76-2.04-2.98,0-5.76,1.41-7.42,3.78-1.56,2-2.57,4.9-2.57,7.38,0,2.86,1.18,5.53,3.39,7.27,10.19,7.64,22.89,19.99,31.63,30.71"/><path class="j" d="M1582.48,324.17c2.61,0,4.78-1.04,6.5-3.26,1.59-2.01,2.4-4.3,2.4-6.94,0-3.15-1.25-6.27-3.42-8.31-8.64-8.49-20.08-21.55-26.92-36.61h22.11c4.71,0,7.79-4.15,7.79-10.5,0-5.93-3.08-9.72-7.79-9.72h-23.57v-31.87c9.25-2.59,18.05-5.86,25.4-9.38,3.55-1.41,5.72-4.64,5.72-8.49,0-1.74-.44-3.38-1.25-5.38-1.76-3.75-4.61-5.79-8.26-5.79-1.56,0-3.09,.41-4.44,1.11-15.61,8.09-40.57,14.76-62.14,16.69-5.01,.55-7.89,4.01-7.89,9.5l.04,1.45c.78,5.79,4.03,8.98,9.11,8.98h1.25c7.72-.85,15.48-2.15,23.13-3.79v26.97h-27.43c-4.78,0-7.79,3.78-7.79,9.94s3.12,10.27,7.79,10.27h24.69c-6.74,24.82-19.81,51.08-34.41,69-1.83,2.26-2.81,5.01-2.81,7.64,0,3.37,1.49,6.53,3.89,8.42,5.21,4.23,10.67,2.71,13.92-2.19,9.15-12.24,17.71-30.27,23.47-46.22-.71,7.53-1.32,15.1-1.32,21.81v74.6c0,5.49,3.52,8.75,9.38,8.75s9.96-3.34,9.96-8.75v-81.76c0-6.94-.51-16.14-1.35-25.37,5.01,9.87,11.41,19.14,16.42,25.04,2.23,2.67,5.08,4.15,7.82,4.15"/><path class="j" d="M1793.09,296.42c0-1.67-.37-3.38-1.01-4.82-2.13-5.04-5.35-6.08-7.69-6.08-1.66,0-3.29,.63-5.15,1.93-2.75,1.67-5.83,3.45-9.04,5.31v-39.62h14.19c4.81,0,7.86-4.01,7.86-10.2s-3.05-10.01-7.86-10.01h-14.19v-38.36c0-5.53-3.59-8.75-9.75-8.75s-9.82,3.3-9.82,8.75v38.36h-21.57c-4.64,0-7.79,4.15-7.79,10.24s3.05,9.98,7.79,9.98h21.57v49.11c-7.52,3.53-15.61,6.68-23.33,9.16-3.72,1.19-5.83,4.27-5.83,8.46,0,1.37,.21,2.74,.68,4.3,1.25,4.9,4.4,7.86,8.43,7.86,1.08,0,2.13-.3,3.12-.56,5.69-2.04,11.51-4.27,16.93-6.6v55.9c0,4.86-.17,5.86-6.67,5.86-3.29,0-6.91-.56-10.66-1.56-.92-.33-1.59-.33-2.3-.33-3.86,0-6.77,3.04-7.76,8.09-.24,1.19-.24,2.37-.24,3.08,0,4.9,2.44,8.46,6.74,9.68,4.47,1.22,10.8,2,17.03,2,15.98,0,23.43-7.27,23.43-22.81v-69.11c7.38-3.97,13.51-7.53,18.73-10.98,2.61-2.12,4.17-5.08,4.17-8.27"/><path class="j" d="M1916.86,384.89c-18.15-7.05-34.78-17.06-49.34-29.82,15.1-15.73,27.57-33.83,36.1-52.49,2.13-4.49,3.21-8.87,3.21-12.98,0-9.72-6.54-15.92-16.66-15.92h-29.43v-31.94h51.04c4.77,0,7.79-4.08,7.79-10.42s-3.08-10.24-7.79-10.24h-51.04v-26.75c0-5.27-3.69-8.57-9.72-8.57s-9.75,3.38-9.75,8.57v26.75h-42.36c-4.71,0-7.86,4.12-7.86,10.24s3.08,10.42,7.86,10.42h42.36v31.94h-39.99c-4.81,0-7.79,3.78-7.79,9.98s2.92,9.94,7.79,9.94h4.6c2.88,8.79,5.55,16.17,8.94,23.55,5.82,13.17,13.68,25.86,23.43,37.76-15.37,12.43-33.69,22.96-54.48,31.42-5.42,2.15-6.54,6.05-6.54,8.86,0,1.86,.34,3.52,.98,5.23,1.49,4.38,4.33,6.68,8.36,6.68,1.32,0,2.88-.37,4.6-.85l.98-.22c21.23-8.42,42.02-20.96,60.07-36.28,15.34,14.43,33.83,26.45,56.25,36.58,1.22,.85,2.78,1.23,4.61,1.23,4.06,0,7.41-2.67,9.41-7.72,.51-1.63,.78-3.26,.78-4.86,0-4.75-2.51-8.68-6.44-10.09m-31.25-90.85c0,.56-.13,1.15-.75,2.48-7.14,16.13-17.61,31.16-31.18,44.59-11.58-12.83-20.96-28.79-27.97-47.52h57.94c1.59,0,1.96,.33,1.96,.45"/><path class="j" d="M2137.58,386.53c-16.79-6.12-31.73-14.36-44.53-24.48,12.9-14.5,23.4-30.68,30.44-47,1.66-3.93,2.57-7.68,2.57-10.98,0-10.57-7.07-17.1-18.42-17.1h-81.78c-4.84,0-7.99,3.86-7.99,9.94s3.15,10.27,7.99,10.27h7.21c2.23,6.64,4.54,13.43,7.68,20,5.86,12.39,13.55,24.19,22.89,34.9-12.94,10.8-27.09,19.51-40.91,25.12-4.44,1.52-7.08,5.38-7.08,10.16,0,1.56,.21,2.89,.81,4.78,1.86,5.08,6,6.86,9.18,6.86,1.12,0,2.14-.26,3.25-.59,17.78-7.79,34.34-18.47,49.31-31.75,14.5,13.02,31.9,23.48,51.74,31.27,1.46,.59,2.98,.85,4.47,.85,4.06,0,7.41-2.82,8.8-7.45,.65-1.86,.95-3.75,.95-5.6,0-4.56-2.34-7.83-6.61-9.2m-33.42-78.01c0,.52-.34,1.56-.91,2.93-5.69,12.69-14.16,25.08-25.03,36.83-10.77-11.13-19.57-25.23-25.67-41.1h49.23c2.37,0,2.37,.78,2.37,1.33"/><path class="j" d="M1994.35,191.7h-23.84c-13.75,0-19.88,6.6-19.88,21.37v53.57c0,65.77-3.72,102.75-12.43,123.57-.95,2.26-1.45,4.67-1.45,6.68,0,4.52,2.2,8.23,5.55,9.76,1.86,1.08,3.89,1.19,4.64,1.19,4.53,0,8.16-2.97,10.09-8.31,6.33-17.55,9.92-39.58,11.48-71.26h26.62v53.98c0,3.89-.5,4.93-5.11,4.93-2.51,0-5.35-.44-8.57-1.37-.91-.3-1.73-.3-2.27-.3-3.66,0-6.36,2.78-7.35,7.72l-.13,.56c-.17,1-.34,1.89-.34,2.89,0,4.64,2.5,8.24,6.3,9.24,5.21,1.41,11.58,1.71,16.02,1.71,12.94,0,20.38-7.57,20.38-20.66V213.07c0-14.76-6.13-21.37-19.71-21.37m.78,24.67v34.57h-25.39v-34.57c0-3.63,.88-4.23,4.07-4.23h17.3c3.15,0,4.03,.59,4.03,4.23m0,54.57v37.54h-25.8c.21-10.72,.41-22.18,.41-34.54v-3h25.39Z"/><path class="j" d="M2025.67,284.14c2.37,0,4.64-.85,7.38-3,16.29-14.43,22.69-31.98,22.92-62.66,0-4.23,1.22-4.67,3.82-4.67h22.08c3.76,0,4.74,1,4.74,4.67v37.24c0,15.24,5.52,19.48,25.74,19.48,15.07,0,21.91-2.64,26.21-9.98,2.91-5.49,4.91-16.25,5.38-28.86v-.52c0-5.23-3.42-8.79-8.87-9.09h-.61c-5.18,0-8.63,3.23-8.91,8.27-.14,3.64-.44,13.24-1.79,16.51-1.05,2.3-2.98,3.64-9.65,3.64-8.2,0-8.2-1.41-8.2-4.45v-36.24c0-13.84-6.57-20.88-19.51-20.88h-30.92c-12.7,0-18.86,6.94-18.86,21.14,0,26.3-4.54,39.43-17.41,50-2.4,1.86-3.79,4.86-3.79,8.24,0,2.67,.85,5.27,2.47,7.31,2.4,2.6,4.98,3.86,7.75,3.86"/><path class="j" d="M2220.69,288.71l.07-.08c18.35-17.99,33.15-42.06,42.6-69.66,.51-1.37,.81-2.82,.81-4.23,0-4.52-2.54-7.79-7.25-9.24-1.15-.26-2.34-.52-3.62-.52-4.03,0-7.08,2.45-8.4,6.83-6.67,23.33-20.35,45.44-37.49,60.61-2.44,2.19-3.86,5.34-3.86,8.64,0,2.37,.78,4.71,2.3,6.68,2.13,2.86,4.54,4.27,7.41,4.27,2.4,0,4.98-1.11,7.42-3.3"/><path class="j" d="M2316.02,277.91h-80.86c-4.78,0-7.86,4.01-7.86,10.27s3.01,9.94,7.86,9.94h23.84c-2.37,44.44-16.19,71.41-46.19,89.96-2.74,1.82-4.5,5.56-4.5,9.5,0,2,.51,4.01,1.56,6.08,2.03,3.26,4.95,5.08,8.23,5.08,2.03,0,3.96-.59,6.47-2.11,34.44-22.37,51.17-55.9,54.01-108.51h32.88c3.79,0,4.78,.97,4.78,4.45-.2,30.9-2.61,58.98-6.23,73.34-2.17,7.68-4.27,8.86-10.23,8.86-4.13,0-9.95-.85-14.46-2.08-1.05-.33-1.86-.33-2.81-.33-4.4,0-7.62,3.04-8.63,8.13-.27,1.15-.27,2.3-.27,3.33,0,3.34,1.25,7.72,7.42,9.68,5.55,1.41,13.41,2.15,22.01,2.15,13.96,0,22.21-6.9,25.9-21.78,4.2-16.43,7.04-49.45,7.21-84.17,0-14.47-6.74-21.81-20.11-21.81"/><path class="j" d="M2317.03,205.58c-3.22-10.09-7.92-13.61-17.92-13.61h-27.63c-4.6,0-7.82,4.12-7.82,9.94s3.21,10.05,7.82,10.05h24.21c2.85,0,3.93,.37,5.22,4.53,8.13,27.12,25.36,53.23,47.44,71.93,2.2,1.48,4.17,2.15,6.13,2.15,3.12,0,5.99-1.63,8.13-4.6,1.49-2.15,2.3-4.71,2.3-7.27,0-3.86-1.86-7.38-4.67-9.16-19.37-14.58-34.71-37.32-43.21-63.95"/><path class="j" d="M2220.05,196.49c0-4.67-3.15-8.35-8.12-9.5-6.4-1.34-11.04,1.15-12.26,7.16-6.95,32.09-21.47,64.43-41.01,90.96-1.36,2.12-2.04,4.34-2.04,6.6,0,3.45,1.49,6.53,4.13,8.64,4.74,3.9,10.94,2.93,14.32-1.74,2.34-3.08,4.74-7.01,7.18-11.98-.51,6.34-.78,12.87-.78,19.03v96.19c0,5.38,3.89,8.83,10.02,8.83s10.19-3.3,10.19-8.83V250.02c7.56-16.06,13.82-33.57,18.05-50.71,.3-1.15,.3-2,.3-2.82"/><path class="j" d="M2573.72,214.22h-101.21c2.23-6.53,3.96-12.1,5.38-17.47,.24-1,.51-2.15,.51-3.38,0-2.15-.78-7.27-7.65-8.68-1.05-.3-2.07-.3-3.01-.3-4.74,0-7.76,2.49-9.08,7.64-1.49,6.83-3.79,14.32-6.8,22.19h-62.41c-4.71,0-7.76,4.08-7.76,10.42s3.18,10.76,7.76,10.76h52.83c-14.73,28.64-36.4,54.42-59.87,71.07-3.12,2.33-4.64,5.19-4.64,8.68,0,2.26,.71,4.49,2,6.53,3.38,5.49,9.01,6.56,15.07,1.93,9.38-7.31,19.13-16.58,28.41-27.04-.57,5.12-.71,10.53-.71,14.8v88.81c0,5.31,4.2,9.09,10.19,9.09s9.99-3.86,9.99-9.09v-44.25h91.8v22.48c0,6.2-.44,8.01-10.57,8.01-5.72,0-12.8-1.45-17.17-2.59-1.22-.74-2.16-.74-2.94-.74-4.03,0-7.35,3.19-8.4,8.08-.27,1.19-.27,2.38-.27,3.08,0,5.08,2.77,8.79,7.42,9.98,6.5,1.71,14.93,2.63,23.77,2.63,19.58,0,27.9-7.34,27.9-24.63v-103.57c0-14.84-6.67-21.78-20.96-21.78h-67.28c-4.3,0-9.96,.23-14.39,.82,3.89-6.49,7.76-13.76,11.99-22.3h110.12c4.74,0,7.99-4.45,7.99-10.76s-3.11-10.42-7.99-10.42m-39.21,121.71h-91.8v-19.55h91.8v19.55Zm0-39.51h-91.8v-15.13c0-3.04,.68-4.49,4.71-4.49h82.39c3.99,0,4.71,1.45,4.71,4.49v15.13Z"/><path class="j" d="M2678.37,324.62c0-18.14-6.06-34.13-20.01-53.42-1.01-1.56-1.18-2.38-1.18-3.16,0-.41,.06-1.67,1.25-3.75,6.23-11.13,14.94-28.04,20.65-45.55,1.12-3.08,1.63-6.34,1.63-9.72,0-10.83-6.46-17.33-17.34-17.33h-35.69c-13.62,0-19.68,6.45-19.68,20.92v187.78c0,5.83,3.69,9.31,9.99,9.31s9.99-3.48,9.99-9.31V215.92c0-3.26,.92-4.26,4.3-4.26h24.41c2.54,0,2.54,.82,2.54,1.19,0,.44-.1,.89-.23,1.56l-.14,.71c-3.96,14.65-10.77,30.27-19.2,43.99-1.93,3.12-2.88,6.34-2.88,9.39,0,3.41,1.08,6.68,3.38,9.75,12.8,16.58,18.22,29.79,18.22,44.26,0,10.28-2.27,11.31-7.31,11.31-2.61,0-6.37-.48-10.43-1.41h-1.25c-4.64,0-8.09,3.3-8.87,8.35-.27,1.15-.27,2.08-.27,3.08,0,5.01,2.6,8.64,7.18,10.17,4.67,1.22,10.74,1.48,14.93,1.48,12.13,0,26.01-3.49,26.01-30.86"/><path class="j" d="M2801.09,386.38c-16.65-9.65-30.07-22.11-40.02-37.02,12.93-8.68,26.95-20.11,36.03-29.42,1.76-1.67,2.78-4.01,2.78-6.71,0-3.15-1.29-6.01-3.79-8.42-3.36-3.75-9.32-4.15-13.52,.48-8.02,9.2-20.96,19.77-30.98,26.97-3.99-8.49-7.12-18.1-9.28-28.67h27.47c14.42,0,21.47-6.86,21.47-21.11v-67.07c0-14.24-6.84-20.89-21.47-20.89h-62.92c-14.52,0-20.99,6.38-20.99,20.66v166.11l-.24,.04c-7.25,1.56-14.12,3.04-20.11,3.93-5.08,.85-8.23,4.6-8.23,9.75,0,.97,0,1.86,.24,2.97,1.05,5.68,4.64,9.09,9.59,9.09,.47,0,1.35,0,1.93-.26,22.34-3.56,52.48-12.72,70.9-19.66,4.07-1.22,6.54-4.56,6.54-9.01,0-1.37-.24-2.71-.78-4.38-1.25-4.6-4.37-7.23-8.33-7.23-.91,0-1.86,.22-3.01,.56-7.86,3.15-18.42,6.31-28.95,9.27v-72.78h18.12c2.98,16.99,8.03,32.23,15.31,46.59,7.31,14.87,17.2,28.23,29.36,39.88,7.11,6.97,14.79,12.17,21.57,16.36,1.46,.82,2.98,1.19,4.87,1.19,4.1,0,7.69-2.15,9.32-5.45,1.45-2.56,1.76-5.19,1.76-6.9,0-3.79-1.59-6.9-4.61-8.87m-95.69-147.53v-20.37c0-2.63,.75-3.93,5.11-3.93h55.8c4.98,0,5.35,1.67,5.35,3.93v20.37h-66.27Zm0,19.47h66.27v22c0,2.56-.54,3.79-5.35,3.79h-60.92v-25.78Z"/><path class="j" d="M2836.52,302.47c28.07-22.89,53.13-57.5,67.15-92.59,.65-1.56,1.02-3.19,1.02-5.08,0-4.12-2.4-7.53-6.5-9.35-1.59-.78-3.25-1.15-5.21-1.15-4.44,0-8.03,2.74-9.45,7.2-11.14,31.38-33.66,62.06-60.34,81.98-3.22,2.45-5.05,6.04-5.05,9.9,0,2.01,.44,5.04,2.84,7.94,2.27,2.78,4.88,4.15,7.96,4.15,2.47,0,4.98-.97,7.59-3.01"/><path class="j" d="M2957.28,200.9h0c-2.41-6.01-7.86-8.68-14.53-5.53-4.06,1.59-6.37,4.9-6.37,9.42,0,1.86,.34,3.52,1.05,5.01,14.73,35.72,40.33,70.3,68.47,92.52,2.37,1.82,4.88,2.67,7.48,2.67,3.22,0,6.06-1.71,8.2-4.86,1.73-2.78,2.67-5.53,2.67-8.2,0-3.64-1.52-6.79-4.43-9.2-27.16-19.7-49.95-49.52-62.54-81.83"/><path class="j" d="M2958.97,310.85l-.1-.15c-2.64-2.86-5.45-4.34-8.36-4.34-2.1,0-4.13,.7-5.76,2-3.05,2.19-4.91,5.64-4.91,9.2,0,2.08,.81,4.34,2.37,6.64,9.08,12.17,17.68,25.11,25.64,38.47-16.39,2.6-29.87,4.34-42.43,5.53-9.18,1.04-18.59,1.74-27.67,2.37l-17,1.19c16.12-31.01,31.73-67.51,43.04-100.68,.5-1.37,.81-2.75,.81-4.01,0-5.19-3.32-9.13-8.77-10.46-6.44-1.33-11.14,1.15-13.07,7.49-10.9,35.5-27.87,76.05-45.44,108.62-6.64,.22-13.54,.44-20.15,.44-5.52,0-9.32,4.42-9.32,10.68v1c.27,7.42,3.9,11.83,9.75,11.83h.51c50.49-1.93,96.51-6.57,140.63-14.24,2.78,5.27,5.42,10.87,7.82,16.51,2.2,4.56,5.72,7.23,9.52,7.23,1.66,0,3.49-.63,5.18-1.67,5.22-3.04,6.33-7.12,6.33-10.01,0-2.01-.51-3.97-1.53-5.86-12.53-25.78-27.9-51.23-47.1-77.79"/><path class="j" d="M3175.18,247.2c0-6.16-2.98-10.02-7.83-10.02h-115.23c-4.81,0-7.79,3.86-7.79,10.02s3.05,10.42,7.79,10.42h115.23c4.78,0,7.83-4.08,7.83-10.42"/><path class="j" d="M3159.64,344.27v-43.07c0-14.91-6.81-21.89-21.44-21.89h-60.99c-14.59,0-21.67,7.2-21.67,21.89v43.07c0,14.88,7.08,22.07,21.67,22.07h60.99c14.42,0,21.44-7.2,21.44-22.07m-19.95-40.73v38.39c0,3.23-.68,4.19-4.74,4.19h-54.25c-4.2,0-4.98-1.08-4.98-4.19v-38.39c0-3.12,.78-4.19,4.98-4.19h54.25c4.06,0,4.74,.96,4.74,4.19"/><path class="j" d="M3195.29,194.08h-153.77c-4.98,0-8.23,4.08-8.23,10.46s3.32,10.5,8.23,10.5h148.39c5.15,0,5.99,1.78,5.99,6.12v154.17c0,7.05-1.25,8.98-9.92,8.98-6.94,0-15.3-1-21.74-2.56-.92-.3-1.53-.3-2.27-.3-4.44,0-7.82,3.37-8.8,8.64-.3,1.04-.3,2.19-.3,3,0,5.64,2.88,9.31,8.13,10.43,6.47,1.48,15.2,2.15,26.72,2.15,20.59,0,28.98-7.49,28.98-25.82V216.63c0-14.76-7.38-22.56-21.4-22.56"/><path class="j" d="M1349.93,824.02c24.68,36.84,30.14,44.33,44.34,61.95h-108.76c-5.92-13.41-18.01-35.59-28.89-53.14l-64.85-103.76-42.27,42.27v52.69c0,25.96,.79,39.77,3.32,61.95h-88.71c2.53-21.36,3.32-36.84,3.32-61.95v-224.28c0-25.54-.79-41.84-3.32-61.96h88.71c-2.53,21.79-3.32,35.6-3.32,61.96v74.04l83.25-89.1c16.34-17.16,27.18-31.42,36.42-46.9h113c-7.56,7.56-10.52,10.88-16.33,16.73q-21.79,21.79-29.28,29.32l-87.46,91.66,100.83,148.52Z"/><path class="j" d="M1747.79,537.78c-2.5,17.98-3.35,33.06-3.35,63.24v143.89c0,95.41-57.35,149.45-158.19,149.45-51.89,0-94.16-14.69-119.27-41.05-24.22-25.93-36.81-62.34-36.81-109.18v-143.1c0-28.89-.86-47.29-3.32-63.24h90.35c-2.5,15.51-3.32,32.21-3.32,63.24v143.89c0,52.79,23.86,77.89,72.83,77.89s74.02-25.11,74.02-77.89v-143.89c0-31.42-.79-44.37-3.35-63.24h90.41Z"/><path class="j" d="M2004.35,708.95c12.13,17.98,20.12,31.39,30.17,49.79-1.67-19.26-2.56-38.52-2.56-61.92v-95.41c0-27.64-.79-44.37-3.29-63.63h89.1c-2.53,18.87-3.32,36.42-3.32,63.63v222.18c0,25.54,1.25,44.76,3.32,62.38h-91.66c-7.49-15.94-17.12-31.42-31.35-53.14l-77.43-116.74c-11.3-16.73-18.41-29.28-30.1-51.47,2.07,18.8,2.89,41.84,2.89,62.31v93.73c0,28.92,.89,47.33,3.35,65.31h-89.1c2.53-16.33,3.32-34.74,3.32-65.7v-220.11c0-24.26-.79-43.12-3.32-62.38h90.81c4.14,11.31,13.38,28.04,29.71,52.36l79.47,118.81Z"/><path class="j" d="M2515.62,537.78h-106.95c-2.96,12.39-7.36,22.68-21.2,47.03l-45.46,77.37-43.71-78.78c-10.38-19.09-16.76-34.28-19.23-45.62h-106.98c6.38,8.87,8.35,12.03,29.58,47.39l95.31,153.65-86.47,147.14h93.11l62.47-103.5c2.53-3.22,4.93-6.57,7.1-10.19l48.28-80.09c.06-.07,.1-.13,.13-.2l64.45-106.81q17.25-28.96,29.55-47.39"/><path class="j" d="M2853.75,710.23c0,110.46-67.37,183.69-169.06,183.69s-168.64-71.55-168.64-182.44,66.13-181.19,169.03-181.19,168.67,70.3,168.67,179.94m-87.03,.82c0-67.84-30.99-108.79-81.64-108.79s-82.39,41.38-82.39,108.79,31.38,110.43,82.39,110.43,81.64-41.84,81.64-110.43"/><path class="j" d="M3217.52,537.78c-2.47,17.98-3.35,33.06-3.35,63.24v143.89c0,95.41-57.32,149.45-158.19,149.45-51.86,0-94.13-14.69-119.24-41.05-24.26-25.93-36.84-62.34-36.84-109.18v-143.1c0-28.89-.82-47.29-3.32-63.24h90.38c-2.53,15.51-3.32,32.21-3.32,63.24v143.89c0,52.79,23.85,77.89,72.8,77.89s74.05-25.11,74.05-77.89v-143.89c0-31.42-.82-44.37-3.35-63.24h90.38Z"/></svg>